<svg width="1038px" height="1473px"
 viewBox="0.00 0.00 1038.00 1473.20" xmlns="http://www.w3.org/2000/svg" xmlns:xlink="http://www.w3.org/1999/xlink">
<g id="graph0" class="graph" transform="scale(1.0 1.0) rotate(0.0) translate(4.0 1469.2)">
<title>G</title>
<polygon fill="white" stroke="transparent" points="-4,4 -4,-1469.2 1034,-1469.2 1034,4 -4,4"/>
<g id="clust1" class="cluster">
<title>cluster_</title>
<polygon fill="none" stroke="blue" points="8,-8 8,-1457.2 1022,-1457.2 1022,-8 8,-8"/>
</g>
<g id="clust2" class="cluster">
<title>cluster_</title>
<polygon fill="none" stroke="blue" stroke-width="2" points="16,-16 16,-1449.2 1014,-1449.2 1014,-16 16,-16"/>
</g>
<!-- n0 -->
<g id="node1" class="node">
<title>n0</title>
<polygon fill="#f2f2f2" stroke="black" points="539.02,-1282.3 539.02,-1440.7 782.98,-1440.7 782.98,-1282.3 539.02,-1282.3"/>
<text text-anchor="start" x="631.07" y="-1424.1" font-family="Times,serif" font-size="14.00">GameStart</text>
<polyline fill="none" stroke="black" points="539.02,-1415.9 782.98,-1415.9 "/>
<text text-anchor="start" x="621.35" y="-1399.3" font-family="Times,serif" font-size="14.00">&#45;game : Game</text>
<text text-anchor="start" x="614.73" y="-1382.5" font-family="Times,serif" font-size="14.00">&#45;gridLength : int</text>
<text text-anchor="start" x="609.31" y="-1365.7" font-family="Times,serif" font-size="14.00">&#45;scanner : Scanner</text>
<polyline fill="none" stroke="black" points="539.02,-1357.5 782.98,-1357.5 "/>
<text text-anchor="start" x="587.08" y="-1340.9" font-family="Times,serif" font-size="14.00">+GameStart() : GameStart</text>
<text text-anchor="start" x="618.95" y="-1324.1" font-family="Times,serif" font-size="14.00">+begin() : void</text>
<text text-anchor="start" x="607.29" y="-1307.3" font-family="Times,serif" font-size="14.00">+setValues() : void</text>
<text text-anchor="start" x="547.02" y="-1290.5" font-family="Times,serif" font-size="14.00">+validInput(userInput : String) : boolean</text>
</g>
<!-- n3 -->
<g id="node4" class="node">
<title>n3</title>
<polygon fill="#f2f2f2" stroke="black" points="542.13,-718.7 542.13,-1061.9 779.87,-1061.9 779.87,-718.7 542.13,-718.7"/>
<text text-anchor="start" x="644.29" y="-1045.3" font-family="Times,serif" font-size="14.00">Game</text>
<polyline fill="none" stroke="black" points="542.13,-1037.1 779.87,-1037.1 "/>
<text text-anchor="start" x="626.79" y="-1020.5" font-family="Times,serif" font-size="14.00">&#45;grid : IGrid</text>
<text text-anchor="start" x="617.08" y="-1003.7" font-family="Times,serif" font-size="14.00">&#45;barbie : Barbie</text>
<text text-anchor="start" x="590.92" y="-986.9" font-family="Times,serif" font-size="14.00">&#45;pears : ArrayList&lt;Pear&gt;</text>
<text text-anchor="start" x="573.02" y="-970.1" font-family="Times,serif" font-size="14.00">&#45;zombies : ArrayList&lt;Zombie&gt;</text>
<text text-anchor="start" x="580.79" y="-953.3" font-family="Times,serif" font-size="14.00">&#45;entities : ArrayList&lt;Entity&gt;</text>
<text text-anchor="start" x="614.73" y="-936.5" font-family="Times,serif" font-size="14.00">&#45;gridLength : int</text>
<text text-anchor="start" x="609.31" y="-919.7" font-family="Times,serif" font-size="14.00">&#45;scanner : Scanner</text>
<text text-anchor="start" x="592.19" y="-902.9" font-family="Times,serif" font-size="14.00">&#45;pearCollected : boolean</text>
<text text-anchor="start" x="591.41" y="-886.1" font-family="Times,serif" font-size="14.00">&#45;zombiePassed : boolean</text>
<polyline fill="none" stroke="black" points="542.13,-877.9 779.87,-877.9 "/>
<text text-anchor="start" x="613.52" y="-861.3" font-family="Times,serif" font-size="14.00">+Game() : Game</text>
<text text-anchor="start" x="622.45" y="-844.5" font-family="Times,serif" font-size="14.00">+play() : void</text>
<text text-anchor="start" x="599.13" y="-827.7" font-family="Times,serif" font-size="14.00">+updateGame() : void</text>
<text text-anchor="start" x="554.8" y="-810.9" font-family="Times,serif" font-size="14.00">+addZombie(zombie : Zombie) : void</text>
<text text-anchor="start" x="582.03" y="-794.1" font-family="Times,serif" font-size="14.00">+addPear(pear : Pear) : void</text>
<text text-anchor="start" x="568.78" y="-777.3" font-family="Times,serif" font-size="14.00">+addEntity(entity : Entity) : void</text>
<text text-anchor="start" x="582.02" y="-760.5" font-family="Times,serif" font-size="14.00">+setGrid(grid : IGrid) : void</text>
<text text-anchor="start" x="566.47" y="-743.7" font-family="Times,serif" font-size="14.00">+setBarbie(barbie : Barbie) : void</text>
<text text-anchor="start" x="550.13" y="-726.9" font-family="Times,serif" font-size="14.00">+setGridLength(gridLength : int) : void</text>
</g>
<!-- n0&#45;&gt;n3 -->
<g id="edge1" class="edge">
<title>n0&#45;&gt;n3</title>
<path fill="none" stroke="black" d="M621.38,-1282.1C621.38,-1282.1 621.38,-1072.03 621.38,-1072.03"/>
<polygon fill="black" stroke="black" points="624.88,-1072.03 621.38,-1062.03 617.88,-1072.03 624.88,-1072.03"/>
</g>
<!-- n4 -->
<g id="node5" class="node">
<title>n4</title>
<polygon fill="#f2f2f2" stroke="black" points="680.14,-495.7 680.14,-586.9 945.86,-586.9 945.86,-495.7 680.14,-495.7"/>
<text text-anchor="start" x="800.56" y="-570.3" font-family="Times,serif" font-size="14.00">Pear</text>
<polyline fill="none" stroke="black" points="680.14,-562.1 945.86,-562.1 "/>
<text text-anchor="start" x="811.25" y="-545.5" font-family="Times,serif" font-size="14.00"> </text>
<polyline fill="none" stroke="black" points="680.14,-537.3 945.86,-537.3 "/>
<text text-anchor="start" x="742.19" y="-520.7" font-family="Times,serif" font-size="14.00">+Pear(grid : IGrid) : Pear</text>
<text text-anchor="start" x="688.14" y="-503.9" font-family="Times,serif" font-size="14.00">+pearCollectCheck(entity : Entity) : boolean</text>
</g>
<!-- n0&#45;&gt;n4 -->
<g id="edge4" class="edge">
<title>n0&#45;&gt;n4</title>
<path fill="none" stroke="black" d="M783.13,-1361C794.67,-1361 802.16,-1361 802.16,-1361 802.16,-1361 802.16,-597.13 802.16,-597.13"/>
<polygon fill="black" stroke="black" points="805.66,-597.13 802.16,-587.13 798.66,-597.13 805.66,-597.13"/>
</g>
<!-- n5 -->
<g id="node6" class="node">
<title>n5</title>
<polygon fill="#f2f2f2" stroke="black" points="370.02,-436.9 370.02,-645.7 641.98,-645.7 641.98,-436.9 370.02,-436.9"/>
<text text-anchor="start" x="487.34" y="-629.1" font-family="Times,serif" font-size="14.00">Barbie</text>
<polyline fill="none" stroke="black" points="370.02,-620.9 641.98,-620.9 "/>
<text text-anchor="start" x="473.73" y="-604.3" font-family="Times,serif" font-size="14.00">&#45;health : int</text>
<text text-anchor="start" x="459.73" y="-587.5" font-family="Times,serif" font-size="14.00">&#45;gridLength : int</text>
<text text-anchor="start" x="450.41" y="-570.7" font-family="Times,serif" font-size="14.00">&#45;collectedPears : int</text>
<polyline fill="none" stroke="black" points="370.02,-562.5 641.98,-562.5 "/>
<text text-anchor="start" x="422.75" y="-545.9" font-family="Times,serif" font-size="14.00">+Barbie(grid : IGrid) : Barbie</text>
<text text-anchor="start" x="457.35" y="-529.1" font-family="Times,serif" font-size="14.00">+getHealth() : int</text>
<text text-anchor="start" x="423.13" y="-512.3" font-family="Times,serif" font-size="14.00">+setHealth(health : int) : void</text>
<text text-anchor="start" x="416.51" y="-495.5" font-family="Times,serif" font-size="14.00">+move(direction : String) : void</text>
<text text-anchor="start" x="434.02" y="-478.7" font-family="Times,serif" font-size="14.00">+getCollectedPears() : int</text>
<text text-anchor="start" x="448.41" y="-461.9" font-family="Times,serif" font-size="14.00">+collectPear() : void</text>
<text text-anchor="start" x="378.02" y="-445.1" font-family="Times,serif" font-size="14.00">+changeHealthBy(healthAddition : int) : void</text>
</g>
<!-- n0&#45;&gt;n5 -->
<g id="edge3" class="edge">
<title>n0&#45;&gt;n5</title>
<path fill="none" stroke="black" d="M539,-1334C528.24,-1334 521.31,-1334 521.31,-1334 521.31,-1334 521.31,-655.75 521.31,-655.75"/>
<polygon fill="black" stroke="black" points="524.81,-655.75 521.31,-645.75 517.81,-655.75 524.81,-655.75"/>
</g>
<!-- n6 -->
<g id="node7" class="node">
<title>n6</title>
<polygon fill="#f2f2f2" stroke="black" points="821.35,-1134.9 821.35,-1209.3 1004.65,-1209.3 1004.65,-1134.9 821.35,-1134.9"/>
<text text-anchor="start" x="900.17" y="-1192.7" font-family="Times,serif" font-size="14.00">Grid</text>
<polyline fill="none" stroke="black" points="821.35,-1184.5 1004.65,-1184.5 "/>
<text text-anchor="start" x="866.73" y="-1167.9" font-family="Times,serif" font-size="14.00">&#45;sideLength : int</text>
<polyline fill="none" stroke="black" points="821.35,-1159.7 1004.65,-1159.7 "/>
<text text-anchor="start" x="829.35" y="-1143.1" font-family="Times,serif" font-size="14.00">+Grid(sideLength : int) : Grid</text>
</g>
<!-- n0&#45;&gt;n6 -->
<g id="edge2" class="edge">
<title>n0&#45;&gt;n6</title>
<path fill="none" stroke="black" d="M700.62,-1282.09C700.62,-1234.83 700.62,-1184 700.62,-1184 700.62,-1184 811.08,-1184 811.08,-1184"/>
<polygon fill="black" stroke="black" points="811.08,-1187.5 821.08,-1184 811.08,-1180.5 811.08,-1187.5"/>
</g>
<!-- n7 -->
<g id="node8" class="node">
<title>n7</title>
<polygon fill="#f2f2f2" stroke="black" points="43.82,-445.3 43.82,-637.3 352.18,-637.3 352.18,-445.3 43.82,-445.3"/>
<text text-anchor="start" x="176.23" y="-620.7" font-family="Times,serif" font-size="14.00">Zombie</text>
<polyline fill="none" stroke="black" points="43.82,-612.5 352.18,-612.5 "/>
<text text-anchor="start" x="151.73" y="-595.9" font-family="Times,serif" font-size="14.00">&#45;gridLength : int</text>
<text text-anchor="start" x="147.46" y="-579.1" font-family="Times,serif" font-size="14.00">&#45;targetRadius : int</text>
<text text-anchor="start" x="145.12" y="-562.3" font-family="Times,serif" font-size="14.00">&#45;random : Random</text>
<polyline fill="none" stroke="black" points="43.82,-554.1 352.18,-554.1 "/>
<text text-anchor="start" x="108.52" y="-537.5" font-family="Times,serif" font-size="14.00">+Zombie(grid : IGrid) : Zombie</text>
<text text-anchor="start" x="117.45" y="-520.7" font-family="Times,serif" font-size="14.00">+move(entity : Entity) : void</text>
<text text-anchor="start" x="58.81" y="-503.9" font-family="Times,serif" font-size="14.00">&#45;isWithinRange(newX : int, newY : int) : boolean</text>
<text text-anchor="start" x="51.82" y="-487.1" font-family="Times,serif" font-size="14.00">&#45;moveTowardsBarbie(newX : int, newY : int) : void</text>
<text text-anchor="start" x="128.4" y="-470.3" font-family="Times,serif" font-size="14.00">&#45;moveRandomly() : void</text>
<text text-anchor="start" x="61.48" y="-453.5" font-family="Times,serif" font-size="14.00">+zombieDamageCheck(entity : Entity) : boolean</text>
</g>
<!-- n0&#45;&gt;n7 -->
<g id="edge5" class="edge">
<title>n0&#45;&gt;n7</title>
<path fill="none" stroke="black" d="M538.78,-1388C379.46,-1388 120.91,-1388 120.91,-1388 120.91,-1388 120.91,-647.6 120.91,-647.6"/>
<polygon fill="black" stroke="black" points="124.41,-647.6 120.91,-637.6 117.41,-647.6 124.41,-647.6"/>
</g>
<!-- n1 -->
<g id="node2" class="node">
<title>n1</title>
<polygon fill="#f2f2f2" stroke="black" points="372.39,-853.1 372.39,-927.5 503.61,-927.5 503.61,-853.1 372.39,-853.1"/>
<text text-anchor="start" x="398.34" y="-910.9" font-family="Times,serif" font-size="14.00">RenderVisitor</text>
<polyline fill="none" stroke="black" points="372.39,-902.7 503.61,-902.7 "/>
<text text-anchor="start" x="436.25" y="-886.1" font-family="Times,serif" font-size="14.00"> </text>
<polyline fill="none" stroke="black" points="372.39,-877.9 503.61,-877.9 "/>
<text text-anchor="start" x="380.39" y="-861.3" font-family="Times,serif" font-size="14.00">+getResult() : String</text>
</g>
<!-- n1&#45;&gt;n4 -->
<g id="edge8" class="edge">
<title>n1&#45;&gt;n4</title>
<path fill="none" stroke="black" d="M459.87,-853.06C459.87,-793.15 459.87,-682 459.87,-682 459.87,-682 713.38,-682 713.38,-682 713.38,-682 713.38,-596.98 713.38,-596.98"/>
<polygon fill="black" stroke="black" points="716.88,-596.98 713.38,-586.98 709.88,-596.98 716.88,-596.98"/>
</g>
<!-- n1&#45;&gt;n5 -->
<g id="edge6" class="edge">
<title>n1&#45;&gt;n5</title>
<path fill="none" stroke="black" d="M416.13,-852.95C416.13,-852.95 416.13,-655.7 416.13,-655.7"/>
<polygon fill="black" stroke="black" points="419.63,-655.7 416.13,-645.7 412.63,-655.7 419.63,-655.7"/>
</g>
<!-- n1&#45;&gt;n7 -->
<g id="edge7" class="edge">
<title>n1&#45;&gt;n7</title>
<path fill="none" stroke="black" d="M372.1,-902C301.05,-902 198,-902 198,-902 198,-902 198,-647.49 198,-647.49"/>
<polygon fill="black" stroke="black" points="201.5,-647.49 198,-637.49 194.5,-647.49 201.5,-647.49"/>
</g>
<!-- n8 -->
<g id="node9" class="node">
<title>n8</title>
<polygon fill="#f2f2f2" stroke="black" points="406.73,-32.9 406.73,-124.1 503.27,-124.1 503.27,-32.9 406.73,-32.9"/>
<text text-anchor="start" x="414.73" y="-107.5" font-family="Times,serif" font-size="14.00">&lt;&lt;interface&gt;&gt;</text>
<text text-anchor="start" x="418.45" y="-90.7" font-family="Times,serif" font-size="14.00">EntityVisitor</text>
<polyline fill="none" stroke="black" points="406.73,-82.5 503.27,-82.5 "/>
<text text-anchor="start" x="453.25" y="-65.9" font-family="Times,serif" font-size="14.00"> </text>
<polyline fill="none" stroke="black" points="406.73,-57.7 503.27,-57.7 "/>
<text text-anchor="start" x="453.25" y="-41.1" font-family="Times,serif" font-size="14.00"> </text>
</g>
<!-- n1&#45;&gt;n8 -->
<g id="edge9" class="edge">
<title>n1&#45;&gt;n8</title>
<path fill="none" stroke="black" stroke-dasharray="5,2" d="M372.12,-877C365.47,-877 361.1,-877 361.1,-877 361.1,-877 361.1,-93 361.1,-93 361.1,-93 396.68,-93 396.68,-93"/>
<polygon fill="none" stroke="black" points="396.68,-96.5 406.68,-93 396.68,-89.5 396.68,-96.5"/>
</g>
<!-- n2 -->
<g id="node3" class="node">
<title>n2</title>
<polygon fill="#f2f2f2" stroke="black" points="513.79,-205.5 513.79,-363.9 798.21,-363.9 798.21,-205.5 513.79,-205.5"/>
<text text-anchor="start" x="638.89" y="-348.3" font-family="Times,serif" font-style="italic" font-size="14.00">Entity</text>
<polyline fill="none" stroke="black" points="513.79,-339.1 798.21,-339.1 "/>
<text text-anchor="start" x="614.38" y="-322.5" font-family="Times,serif" font-size="14.00">&#45;xPosition : int</text>
<text text-anchor="start" x="614.38" y="-305.7" font-family="Times,serif" font-size="14.00">&#45;yPosition : int</text>
<polyline fill="none" stroke="black" points="513.79,-297.5 798.21,-297.5 "/>
<text text-anchor="start" x="521.79" y="-280.9" font-family="Times,serif" font-size="14.00">+Entity(grid : IGrid, random : Random) : Entity</text>
<text text-anchor="start" x="598" y="-264.1" font-family="Times,serif" font-size="14.00">+getXPosition() : int</text>
<text text-anchor="start" x="598" y="-247.3" font-family="Times,serif" font-size="14.00">+getYPosition() : int</text>
<text text-anchor="start" x="564.17" y="-230.5" font-family="Times,serif" font-size="14.00">+setXPosition(newX : int) : void</text>
<text text-anchor="start" x="564.17" y="-213.7" font-family="Times,serif" font-size="14.00">+setYPosition(newY : int) : void</text>
</g>
<!-- n2&#45;&gt;n8 -->
<g id="edge11" class="edge">
<title>n2&#45;&gt;n8</title>
<path fill="none" stroke="black" d="M560.18,-205.38C560.18,-147.09 560.18,-78 560.18,-78 560.18,-78 513.28,-78 513.28,-78"/>
<polygon fill="black" stroke="black" points="513.28,-74.5 503.28,-78 513.28,-81.5 513.28,-74.5"/>
</g>
<!-- n9 -->
<g id="node10" class="node">
<title>n9</title>
<polygon fill="#f2f2f2" stroke="black" points="606.57,-24.5 606.57,-132.5 897.43,-132.5 897.43,-24.5 606.57,-24.5"/>
<text text-anchor="start" x="711.73" y="-115.9" font-family="Times,serif" font-size="14.00">&lt;&lt;interface&gt;&gt;</text>
<text text-anchor="start" x="736.84" y="-99.1" font-family="Times,serif" font-size="14.00">IGrid</text>
<polyline fill="none" stroke="black" points="606.57,-90.9 897.43,-90.9 "/>
<text text-anchor="start" x="750.25" y="-74.3" font-family="Times,serif" font-size="14.00"> </text>
<polyline fill="none" stroke="black" points="606.57,-66.1 897.43,-66.1 "/>
<text text-anchor="start" x="689.73" y="-49.5" font-family="Times,serif" font-size="14.00">+getSideLength() : int</text>
<text text-anchor="start" x="614.57" y="-32.7" font-family="Times,serif" font-size="14.00">+displayGrid(entities : ArrayList&lt;Entity&gt;) : void</text>
</g>
<!-- n2&#45;&gt;n9 -->
<g id="edge10" class="edge">
<title>n2&#45;&gt;n9</title>
<path fill="none" stroke="black" d="M702.39,-205.27C702.39,-180.99 702.39,-154.86 702.39,-132.67"/>
</g>
<!-- n3&#45;&gt;n2 -->
<g id="edge16" class="edge">
<title>n3&#45;&gt;n2</title>
<path fill="none" stroke="black" d="M654.7,-718.38C654.7,-718.38 654.7,-373.96 654.7,-373.96"/>
<polygon fill="black" stroke="black" points="658.2,-373.96 654.7,-363.96 651.2,-373.96 658.2,-373.96"/>
</g>
<!-- n3&#45;&gt;n4 -->
<g id="edge14" class="edge">
<title>n3&#45;&gt;n4</title>
<path fill="none" stroke="black" d="M746.63,-718.61C746.63,-718.61 746.63,-597.09 746.63,-597.09"/>
<polygon fill="black" stroke="black" points="750.13,-597.09 746.63,-587.09 743.13,-597.09 750.13,-597.09"/>
</g>
<!-- n3&#45;&gt;n5 -->
<g id="edge13" class="edge">
<title>n3&#45;&gt;n5</title>
<path fill="none" stroke="black" d="M592.05,-718.61C592.05,-718.61 592.05,-655.99 592.05,-655.99"/>
<polygon fill="black" stroke="black" points="595.55,-655.99 592.05,-645.99 588.55,-655.99 595.55,-655.99"/>
</g>
<!-- n3&#45;&gt;n7 -->
<g id="edge15" class="edge">
<title>n3&#45;&gt;n7</title>
<path fill="none" stroke="black" d="M542.07,-785C428.68,-785 275.09,-785 275.09,-785 275.09,-785 275.09,-647.62 275.09,-647.62"/>
<polygon fill="black" stroke="black" points="278.59,-647.62 275.09,-637.62 271.59,-647.62 278.59,-647.62"/>
</g>
<!-- n3&#45;&gt;n9 -->
<g id="edge12" class="edge">
<title>n3&#45;&gt;n9</title>
<path fill="none" stroke="black" d="M667.42,-718.64C667.42,-581.45 667.42,-412 667.42,-412 667.42,-412 831.28,-412 831.28,-412 831.28,-412 831.28,-142.82 831.28,-142.82"/>
<polygon fill="black" stroke="black" points="834.78,-142.82 831.28,-132.82 827.78,-142.82 834.78,-142.82"/>
</g>
<!-- n4&#45;&gt;n2 -->
<g id="edge17" class="edge">
<title>n4&#45;&gt;n2</title>
<path fill="none" stroke="black" d="M758.85,-495.43C758.85,-495.43 758.85,-373.92 758.85,-373.92"/>
<polygon fill="none" stroke="black" points="762.35,-373.92 758.85,-363.92 755.35,-373.92 762.35,-373.92"/>
</g>
<!-- n4&#45;&gt;n8 -->
<g id="edge19" class="edge">
<title>n4&#45;&gt;n8</title>
<path fill="none" stroke="black" d="M719.5,-495.3C719.5,-450.15 719.5,-388 719.5,-388 719.5,-388 471.09,-388 471.09,-388 471.09,-388 471.09,-210.26 471.09,-124.17"/>
</g>
<!-- n4&#45;&gt;n9 -->
<g id="edge18" class="edge">
<title>n4&#45;&gt;n9</title>
<path fill="none" stroke="black" d="M864.35,-495.66C864.35,-495.66 864.35,-142.65 864.35,-142.65"/>
<polygon fill="black" stroke="black" points="867.85,-142.65 864.35,-132.65 860.85,-142.65 867.85,-142.65"/>
</g>
<!-- n5&#45;&gt;n2 -->
<g id="edge20" class="edge">
<title>n5&#45;&gt;n2</title>
<path fill="none" stroke="black" d="M577.89,-436.56C577.89,-436.56 577.89,-373.95 577.89,-373.95"/>
<polygon fill="none" stroke="black" points="581.39,-373.95 577.89,-363.95 574.39,-373.95 581.39,-373.95"/>
</g>
<!-- n5&#45;&gt;n8 -->
<g id="edge22" class="edge">
<title>n5&#45;&gt;n8</title>
<path fill="none" stroke="black" d="M438.91,-436.86C438.91,-338.75 438.91,-196.55 438.91,-124.31"/>
</g>
<!-- n5&#45;&gt;n9 -->
<g id="edge21" class="edge">
<title>n5&#45;&gt;n9</title>
<path fill="none" stroke="black" d="M508.53,-436.71C508.53,-314.86 508.53,-130 508.53,-130 508.53,-130 596.51,-130 596.51,-130"/>
<polygon fill="black" stroke="black" points="596.51,-133.5 606.51,-130 596.51,-126.5 596.51,-133.5"/>
</g>
<!-- n6&#45;&gt;n1 -->
<g id="edge24" class="edge">
<title>n6&#45;&gt;n1</title>
<path fill="none" stroke="black" d="M821.13,-1159C683.05,-1159 438,-1159 438,-1159 438,-1159 438,-937.66 438,-937.66"/>
<polygon fill="black" stroke="black" points="441.5,-937.66 438,-927.66 434.5,-937.66 441.5,-937.66"/>
</g>
<!-- n6&#45;&gt;n2 -->
<g id="edge23" class="edge">
<title>n6&#45;&gt;n2</title>
<path fill="none" stroke="black" d="M965.46,-1134.79C965.46,-966.23 965.46,-284 965.46,-284 965.46,-284 808.5,-284 808.5,-284"/>
<polygon fill="black" stroke="black" points="808.5,-280.5 798.5,-284 808.5,-287.5 808.5,-280.5"/>
</g>
<!-- n6&#45;&gt;n9 -->
<g id="edge25" class="edge">
<title>n6&#45;&gt;n9</title>
<path fill="none" stroke="black" stroke-dasharray="5,2" d="M985.05,-1134.76C985.05,-943 985.05,-78 985.05,-78 985.05,-78 907.61,-78 907.61,-78"/>
<polygon fill="none" stroke="black" points="907.61,-74.5 897.61,-78 907.61,-81.5 907.61,-74.5"/>
</g>
<!-- n7&#45;&gt;n2 -->
<g id="edge26" class="edge">
<title>n7&#45;&gt;n2</title>
<path fill="none" stroke="black" d="M275.09,-445.13C275.09,-372.04 275.09,-284 275.09,-284 275.09,-284 503.62,-284 503.62,-284"/>
<polygon fill="none" stroke="black" points="503.62,-287.5 513.62,-284 503.62,-280.5 503.62,-287.5"/>
</g>
<!-- n7&#45;&gt;n8 -->
<g id="edge28" class="edge">
<title>n7&#45;&gt;n8</title>
<path fill="none" stroke="black" d="M120.91,-445.08C120.91,-305.41 120.91,-63 120.91,-63 120.91,-63 313.76,-63 406.42,-63"/>
</g>
<!-- n7&#45;&gt;n9 -->
<g id="edge27" class="edge">
<title>n7&#45;&gt;n9</title>
<path fill="none" stroke="black" d="M198,-445.21C198,-322.82 198,-127 198,-127 198,-127 596.44,-127 596.44,-127"/>
<polygon fill="black" stroke="black" points="596.44,-130.5 606.44,-127 596.44,-123.5 596.44,-130.5"/>
</g>
</g>
</svg>
